PathFileType	4	(X/Y/Z)	Patient4_TMGait_0pt6_02_left_20.trc.trc
DataRate	CameraRate	NumFrames	NumMarkers	Units	OrigDataRate	OrigDataStartFrame	OrigNumFrames
82.840236686390	82.840236686390	4	33	mm	82.840236686390	89	       141
Frame#	Time	Sacral			L.Shoulder			Chest			R.Shoulder			Neck			R.ASIS			L.ASIS			R.Thigh.Superior			R.Thigh.Lateral			R.Thigh.Inferior			R.Patella			L.Thigh.Superior			L.Thigh.Lateral			L.Thigh.Inferior			L.Patella			L.Shank.Superior			L.Shank.Lateral			L.Shank.Inferior			R.Shank.Superior			R.Shank.Lateral			R.Shank.Inferior			R.Heel			R.Midfoot.Superior			R.Midfoot.Lateral			R.Toe			L.Heel			L.Midfoot.Lateral			L.Midfoot.Superior			L.Toe			L.Elbow			L.Wrist			R.Elbow			R.Wrist			
		X1	Y1	Z1	X2	Y2	Z2	X3	Y3	Z3	X4	Y4	Z4	X5	Y5	Z5	X6	Y6	Z6	X7	Y7	Z7	X8	Y8	Z8	X9	Y9	Z9	X10	Y10	Z10	X11	Y11	Z11	X12	Y12	Z12	X13	Y13	Z13	X14	Y14	Z14	X15	Y15	Z15	X16	Y16	Z16	X17	Y17	Z17	X18	Y18	Z18	X19	Y19	Z19	X20	Y20	Z20	X21	Y21	Z21	X22	Y22	Z22	X23	Y23	Z23	X24	Y24	Z24	X25	Y25	Z25	X26	Y26	Z26	X27	Y27	Z27	X28	Y28	Z28	X29	Y29	Z29	X30	Y30	Z30	X31	Y31	Z31	X32	Y32	Z32	X33	Y33	Z33	

89	25.632285714286	825.109315159815	1007.595380558202	472.812504712778	1014.626852870452	1432.786312439526	299.625309008999	1110.155316055777	1357.796307307185	462.373824557269	1023.211158116688	1434.182035643660	632.622495260621	1008.258154850300	1493.025705783652	451.715323029220	1049.391738460618	941.957665038851	598.908049840759	1039.892655594459	955.177942822709	323.453449884929	1101.521128468250	746.734515722933	567.199880671873	1023.740232634720	634.797934533958	623.542401982500	1103.750401372729	587.239800907174	543.014196954677	1107.869695478109	501.435329109762	547.122500327474	1078.601965688453	740.234863782109	351.038609633566	992.512130864294	625.481939418614	285.019026124738	1076.523629763344	541.365674599738	345.859775730763	1068.922943633155	456.178292053195	344.679686902907	1003.132178173177	397.824337688460	339.687596488589	865.616743208799	345.444049069469	292.977869546358	859.862855165716	219.028247916215	353.370738331087	1089.347181753214	411.827120351549	553.842702714005	1027.689949640286	301.202643176688	614.865213046920	1079.566368177568	211.720925918363	549.408570799921	960.640409999517	41.914631765571	516.298985176403	1131.125252984744	98.784070869040	549.080367315343	1045.581090463792	36.736224696241	589.104016732378	1252.882943217090	47.974417830857	572.680500012498	675.447006816808	135.021229296554	397.475201238679	734.772671962473	101.659892066835	313.186672394988	837.458039579861	122.552123816274	331.784395057679	927.346721136152	33.482936218358	295.229466565272	1041.750764634058	1086.463355791962	171.218414485443	1269.625767787190	962.607025878799	191.454661468321	936.366370279740	1092.570420630133	741.149743568216	977.942188568663	834.423789555849	736.115097510511	
90	25.644357142857	824.119017641077	1008.034393262066	476.058750497664	1012.481358551444	1433.351319270673	301.759980542948	1109.401111021426	1358.064113182024	463.577993922944	1024.056246719974	1434.285157658862	634.576955922627	1007.531664878055	1493.417716147234	454.050563681123	1049.239769120945	942.500378604170	600.142779619764	1037.869013462198	955.356479581861	324.553168670447	1099.040706997287	746.108371559734	569.719412337824	1019.633033006984	634.931286979502	625.662370740518	1099.340472080685	586.575564596384	545.272319219005	1102.450093272097	501.035572469428	549.025350581568	1082.135787491132	743.534516537161	352.680847969324	1001.210225689395	626.375370584309	285.502394145436	1088.310090454267	544.461685989159	345.859643370580	1082.272358275613	457.960357694329	343.965651686900	1014.627361264472	399.421727208267	339.570089565805	875.040699930656	351.678158649047	293.579365864824	865.545781455897	225.502149476137	353.901316646249	1083.567650312791	411.617448565071	555.468363090445	1021.370275573157	301.068263247767	616.032187626851	1073.011502812192	211.619188967263	550.318530098124	953.508287213604	41.926679819118	516.471284518515	1124.087021078540	98.767215279499	549.470245698297	1038.427509753479	36.673501960097	589.293833117868	1245.765162242587	47.769761952699	572.922921788609	677.913392317629	149.417589823394	398.488699274062	735.578581601755	113.525511953072	313.898781036933	839.606882948983	128.891964359287	332.366514673515	924.410753605531	34.023829165613	295.250669395289	1036.086779084556	1085.588721499834	175.661147783480	1257.195193579644	948.489792084272	194.038624334488	946.595359821250	1090.214559783012	744.578183219032	1000.603608705675	834.348149924532	737.811807488676	
91	25.656428571429	823.091094024648	1008.386394476081	479.248573670770	1010.031423472235	1433.809652163178	303.723664417225	1108.514853764757	1358.288135241981	464.523509971644	1024.892041196556	1434.279395925507	636.377476771089	1006.654021519033	1493.734946936564	456.226906361847	1048.952417552071	942.964900809083	601.246368011605	1035.895984551890	955.393278593458	325.560371172409	1096.294441754878	745.383599183250	572.318145885430	1015.293143410090	635.023136515841	627.811869102077	1094.670765602868	585.880526967120	547.560618042506	1096.779423288717	500.622558398735	551.003020109171	1085.517939371492	746.993003116787	354.066295799965	1009.535028692242	627.725183836382	285.709843936765	1099.614906770355	548.103442854272	345.486805891598	1095.318597646335	460.469148135097	342.964901440108	1026.191125366801	401.558909235553	339.172037929996	884.822342854218	357.868336156440	294.046864424224	872.164463851927	231.980732250382	354.358151170542	1077.562200678143	411.389652521032	557.111788393030	1014.825925427554	300.891330701575	617.162189820970	1066.319366059466	211.498613261979	551.238361112698	946.262960963408	41.936493867747	516.636322192263	1116.985538507688	98.692012258641	549.810573878717	1031.172560907345	36.593945672561	589.463279026386	1238.566383240016	47.441724139189	573.099164338733	681.994146323030	162.765922847365	399.696467193227	738.049312461518	124.878026815973	314.697716916154	843.138550405829	135.416964292828	332.927521365546	923.408503482043	35.226995717761	294.987692935158	1030.207084575001	1084.619841238725	179.898018453286	1243.549758127388	934.474485749632	196.503134308958	957.097618473810	1088.128216940332	748.002174226065	1023.772101932233	835.196593140598	739.320336718509	
92	25.668500000000	822.044511417998	1008.698384360186	482.336442686017	1007.358553423741	1434.184301903581	305.494782680445	1107.523050764991	1358.488735613785	465.215514638313	1025.722506332676	1434.220376803542	638.003837805357	1005.669843556685	1494.013621542341	458.203478906609	1048.513885608071	943.384534559905	602.283873217558	1034.001764309743	955.361162307444	326.558741783143	1093.336104612568	744.637953285170	574.884312674596	1010.832894267089	635.120141664816	629.938912694491	1089.825479247425	585.203227016129	549.811010672693	1090.952475986944	500.226733835882	553.009254054079	1088.677431903729	750.605689797779	355.219212844901	1017.293881533701	629.556457802891	285.685498668539	1110.233350807637	552.275306841286	344.769332769430	1107.846770171242	463.698904389868	341.676607480967	1037.643124214179	404.229240067166	338.480337999506	894.799433857765	363.823495927162	294.354255027429	879.731349069058	238.194174277310	354.658959690518	1071.411440281773	411.169864001839	558.732104626268	1008.133937965864	300.715124799467	618.240405820441	1059.541038007566	211.384296054919	552.149949483006	938.938478488609	41.955857960307	516.802953686749	1109.847910339521	98.590299373210	550.112780649645	1023.851527684757	36.514894423500	589.619197548149	1231.315355507712	47.042232099681	573.225277620645	687.752529780836	174.419883622350	400.995805536909	742.332773872978	135.128099599595	315.495706177803	848.208269920839	141.796319205145	333.349545634134	924.745671486685	37.102677628826	294.375380408387	1024.060984734830	1083.571284786969	183.925157519276	1228.637599653704	920.732716020765	198.822327975914	967.862933616036	1086.370089381325	751.347549747930	1047.314670718621	837.080297359782	740.581745046314	
